<svg xmlns="http://www.w3.org/2000/svg" width="40" height="28" viewBox="0 0 40 28">
    <g fill="none" fill-rule="evenodd">
        <path fill="#0041C2" d="M33.794 33.941c-20.868 0-22.212.613-24.212-.869-4.192-3.106.704-9.55 4.896-6.227-4.112-13.507 16.65-18.069 19.326-4.847 7.886-.281 8.51 11.943-.01 11.943m3.102-15.478s-1.406-3.621-5.118-6.1c-8.646-5.77-20.324-.388-21.644 9.808-.01.074-.118.078-.058.064-1.904.47-3.54 1.617-4.632 3.169-2.23 3.166-1.976 7.794 1.46 10.583 3.184 2.584 4.16 1.942 26.642 1.942 2.636 0 5.13-.967 7.02-2.588 6-5.142 3.756-14.63-3.67-16.878" transform="translate(-4 -10)"/>
        <path d="M0 0H48V48H0z" transform="translate(-4 -10)"/>
    </g>
</svg>
