<svg xmlns="http://www.w3.org/2000/svg" width="40" height="26" viewBox="0 0 40 26">
    <g fill="none" fill-rule="evenodd">
        <path fill="#0041C2" d="M14.956 17.838c.807-.774.807-2.028 0-2.802l-.027-.026c-.807-.774-2.115-.774-2.922 0l-7.402 7.096c-.807.774-.807 2.03 0 2.804l7.402 7.096c.807.774 2.115.774 2.922 0l.027-.026c.807-.774.807-2.028 0-2.802l-4.45-4.268c-.808-.774-.808-2.03 0-2.804l4.45-4.268zm28.439 4.268l-7.402-7.096c-.805-.774-2.115-.774-2.922 0l-.027.026c-.807.774-.807 2.028 0 2.802l4.453 4.268c.807.774.807 2.03 0 2.804l-4.453 4.268c-.807.774-.807 2.028 0 2.802l.027.026c.807.774 2.117.774 2.922 0l7.402-7.096c.807-.774.807-2.03 0-2.804zm-12.428-8.29L20.31 35.477c-.345.681-.95 1.523-1.732 1.523h-.041c-1.52 0-2.51-1.96-1.838-3.282l10.595-21.456c.345-.68 1.625-1.212 1.625-1.212V11c2.068 0 2.719 1.495 2.05 2.816z" transform="translate(-4 -11)"/>
        <path d="M0 0H48V48H0z" transform="translate(-4 -11)"/>
    </g>
</svg>
