<svg xmlns="http://www.w3.org/2000/svg" width="40" height="40" viewBox="0 0 40 40">
    <g fill="none" fill-rule="evenodd">
        <path fill="#0041C2" d="M39.342 39.342c-.782.783-2.053.783-2.836 0-.782-.782-.782-2.053 0-2.836.783-.782 2.054-.782 2.836 0 .783.783.783 2.054 0 2.836M25.418 25.418c-.782.782-2.054.782-2.836 0s-.782-2.054 0-2.836 2.054-.782 2.836 0 .782 2.054 0 2.836M11.436 39.401c-.783.782-2.054.782-2.837 0-.782-.783-.782-2.054 0-2.837.783-.782 2.054-.782 2.837 0 .782.783.782 2.054 0 2.837m.058-27.907c-.78.782-2.054.782-2.836 0-.783-.783-.783-2.054 0-2.836.782-.783 2.055-.783 2.836 0 .782.782.782 2.053 0 2.836m25.07-2.895c.783-.782 2.054-.782 2.837 0 .782.783.782 2.054 0 2.837-.783.782-2.054.782-2.837 0-.782-.783-.782-2.054 0-2.837M35.35 32.511l-5.935-5.936c.989-1.845.774-3.52 0-5.15l5.993-5.996c2.235 1.063 4.98.694 6.83-1.157 2.35-2.349 2.35-6.16 0-8.509-2.349-2.35-6.16-2.35-8.509 0-1.85 1.85-2.22 4.595-1.157 6.83l-5.996 5.995c-1.63-.776-3.305-.99-5.15 0l-5.936-5.935c.833-2.006.692-4.982-1.157-6.832-2.35-2.35-6.162-2.35-8.51 0-2.352 2.351-2.352 6.16 0 8.511 1.849 1.85 4.825 1.99 6.831 1.157l5.935 5.936c-.99 1.845-.776 3.52 0 5.15l-5.995 5.996c-2.235-1.063-4.98-.692-6.83 1.157-2.35 2.349-2.35 6.16 0 8.509 2.349 2.35 6.16 2.35 8.509 0 1.851-1.85 2.22-4.595 1.157-6.83l5.996-5.993c1.63.774 3.305.989 5.15 0l5.936 5.935c-.83 2.004-.692 4.98 1.159 6.83 2.349 2.35 6.16 2.35 8.509 0 2.35-2.35 2.35-6.16 0-8.509-1.85-1.851-4.826-1.992-6.83-1.16" transform="translate(-4 -4)"/>
        <path d="M0 0H48V48H0z" transform="translate(-4 -4)"/>
    </g>
</svg>
