<svg xmlns="http://www.w3.org/2000/svg" width="40" height="40" viewBox="0 0 40 40">
    <g fill="none" fill-rule="evenodd">
        <path fill="#0041C2" d="M40 4H8C5.79 4 4 5.79 4 8v2c0 1.104.896 2 2 2s2-.896 2-2 .896-2 2-2h28c1.104 0 2 .896 2 2v16c0 1.104-.896 2-2 2h-8c-2.21 0-4 1.79-4 4v8c0 2.21 1.79 4 4 4h6c1.104 0 2-.896 2-2s-.896-2-2-2h-4c-1.104 0-2-.896-2-2v-4c0-1.104.896-2 2-2h8c2.21 0 4-1.79 4-4V8c0-2.21-1.79-4-4-4M20 38V20c0-1.104-.896-2-2-2h-8c-1.104 0-2 .896-2 2v18c0 1.104.896 2 2 2h8c1.104 0 2-.896 2-2M8 14h12c2.21 0 4 1.79 4 4v22c0 2.21-1.79 4-4 4H8c-2.21 0-4-1.79-4-4V18c0-2.21 1.79-4 4-4m8.084 20c0 1.104-.896 2-2 2-1.106 0-2-.896-2-2s.894-2 2-2c1.104 0 2 .896 2 2" transform="translate(-4 -4)"/>
        <path d="M0 0H48V48H0z" transform="translate(-4 -4)"/>
    </g>
</svg>
