<svg xmlns="http://www.w3.org/2000/svg" width="28" height="40" viewBox="0 0 28 40">
    <g fill="none" fill-rule="evenodd">
        <path fill="#0041C2" d="M28 18.438c0 2.21-1.79 4-4 4s-4-1.79-4-4 1.79-4 4-4 4 1.79 4 4M24 40c-3.644 0-10-13.98-10-22 0-5.514 4.486-10 10-10s10 4.486 10 10c0 8.02-6.356 22-10 22m0-36c-7.732 0-14 6.268-14 14s6.268 26 14 26 14-18.268 14-26c0-7.732-6.268-14-14-14" transform="translate(-10 -4)"/>
        <path d="M0 0H48V48H0z" transform="translate(-10 -4)"/>
    </g>
</svg>
