<svg xmlns="http://www.w3.org/2000/svg" width="28" height="40" viewBox="0 0 28 40">
    <g fill="none" fill-rule="evenodd">
        <path fill="#0041C2" d="M34 38c0 1.105-.896 2-2 2H16c-1.104 0-2-.895-2-2V22c0-1.103.896-2 2-2h16c1.104 0 2 .897 2 2v16zM20 12c0-2.205 1.794-4 4-4s4 2 4 4v4h-8v-4zm12 4v-4c0-4.493-4.522-8.99-9.672-7.81C18.532 5.06 16 8.684 16 12.578V16h-2c-2.21 0-4 1.79-4 4v20c0 2.21 1.79 4 4 4h20c2.21 0 4-1.79 4-4V20c0-2.21-1.79-4-4-4h-2z" transform="translate(-10 -4)"/>
        <path d="M0 0H48V48H0z" transform="translate(-10 -4)"/>
    </g>
</svg>
