<svg xmlns="http://www.w3.org/2000/svg" width="40" height="40" viewBox="0 0 40 40">
    <g fill="none" fill-rule="evenodd">
        <path d="M0 0H48V48H0z" transform="translate(-4 -4)"/>
        <path fill="#FFF" d="M43.281 38.655c-1.235 3.752-6.072 5.623-9.528 5.311-4.72-.426-9.856-2.93-13.755-5.687C14.268 34.225 8.9 27.956 5.771 21.303c-2.21-4.7-2.706-10.482.582-14.767 1.216-1.584 2.53-2.43 4.507-2.528 2.74-.133 3.125 1.435 4.066 3.877.702 1.827 1.638 3.69 2.16 5.584.979 3.533-2.442 3.68-2.874 6.568-.27 1.82 1.938 4.263 2.936 5.562 1.954 2.544 4.304 4.739 6.954 6.408 1.518.957 3.968 2.682 5.707 1.73 2.677-1.466 2.424-5.98 6.168-4.453 1.939.79 3.816 1.928 5.667 2.926 2.861 1.538 2.728 3.133 1.637 6.445-.816 2.474.816-2.475 0 0" transform="translate(-4 -4)"/>
    </g>
</svg>
